<mxfile host="65bd71144e">
    <diagram id="R2lEEEUBdFMjLlhIrx00" name="Page-1">
        <mxGraphModel dx="2077" dy="1785" grid="1" gridSize="10" guides="1" tooltips="1" connect="1" arrows="1" fold="1" page="1" pageScale="1" pageWidth="850" pageHeight="1100" math="0" shadow="0" extFonts="Permanent Marker^https://fonts.googleapis.com/css?family=Permanent+Marker">
            <root>
                <mxCell id="0"/>
                <mxCell id="1" parent="0"/>
                <mxCell id="Y7KdL754s5v4gNuGPsCo-1" value="Pacote" style="rounded=1;arcSize=10;whiteSpace=wrap;html=1;align=center;" parent="1" vertex="1">
                    <mxGeometry x="520" y="330" width="100" height="40" as="geometry"/>
                </mxCell>
                <mxCell id="Y7KdL754s5v4gNuGPsCo-2" value="Atividade" style="rounded=1;arcSize=10;whiteSpace=wrap;html=1;align=center;" parent="1" vertex="1">
                    <mxGeometry x="500" y="605" width="120" height="70" as="geometry"/>
                </mxCell>
                <mxCell id="Y7KdL754s5v4gNuGPsCo-3" value="Cliente" style="rounded=1;arcSize=10;whiteSpace=wrap;html=1;align=center;" parent="1" vertex="1">
                    <mxGeometry x="30" y="330" width="120" height="40" as="geometry"/>
                </mxCell>
                <mxCell id="Y7KdL754s5v4gNuGPsCo-6" value="Fornecedor" style="rounded=1;arcSize=10;whiteSpace=wrap;html=1;align=center;" parent="1" vertex="1">
                    <mxGeometry x="860" y="445" width="140" height="70" as="geometry"/>
                </mxCell>
                <mxCell id="Y7KdL754s5v4gNuGPsCo-7" value="Promoção" style="rounded=1;arcSize=10;whiteSpace=wrap;html=1;align=center;" parent="1" vertex="1">
                    <mxGeometry x="270" y="70" width="100" height="40" as="geometry"/>
                </mxCell>
                <mxCell id="Y7KdL754s5v4gNuGPsCo-12" value="Indicar" style="shape=rhombus;perimeter=rhombusPerimeter;whiteSpace=wrap;html=1;align=center;" parent="1" vertex="1">
                    <mxGeometry x="30" y="450" width="120" height="60" as="geometry"/>
                </mxCell>
                <mxCell id="Y7KdL754s5v4gNuGPsCo-13" value="" style="endArrow=none;html=1;rounded=0;entryX=0;entryY=0.5;entryDx=0;entryDy=0;" parent="1" target="Y7KdL754s5v4gNuGPsCo-12" edge="1">
                    <mxGeometry relative="1" as="geometry">
                        <mxPoint x="30" y="370" as="sourcePoint"/>
                        <mxPoint x="160" y="410" as="targetPoint"/>
                    </mxGeometry>
                </mxCell>
                <mxCell id="Y7KdL754s5v4gNuGPsCo-14" value="1" style="resizable=0;html=1;whiteSpace=wrap;align=left;verticalAlign=bottom;" parent="Y7KdL754s5v4gNuGPsCo-13" connectable="0" vertex="1">
                    <mxGeometry x="-1" relative="1" as="geometry">
                        <mxPoint x="10" y="50" as="offset"/>
                    </mxGeometry>
                </mxCell>
                <mxCell id="Y7KdL754s5v4gNuGPsCo-15" value="N" style="resizable=0;html=1;whiteSpace=wrap;align=right;verticalAlign=bottom;" parent="Y7KdL754s5v4gNuGPsCo-13" connectable="0" vertex="1">
                    <mxGeometry x="1" relative="1" as="geometry">
                        <mxPoint x="110" y="-60" as="offset"/>
                    </mxGeometry>
                </mxCell>
                <mxCell id="MZW9BxYWKJyln-hkFQs6-26" value="1" style="resizable=0;html=1;whiteSpace=wrap;align=left;verticalAlign=bottom;" parent="Y7KdL754s5v4gNuGPsCo-13" connectable="0" vertex="1">
                    <mxGeometry x="-1" relative="1" as="geometry">
                        <mxPoint x="-20" as="offset"/>
                    </mxGeometry>
                </mxCell>
                <mxCell id="Y7KdL754s5v4gNuGPsCo-16" value="" style="endArrow=none;html=1;rounded=0;exitX=1;exitY=0.5;exitDx=0;exitDy=0;" parent="1" source="Y7KdL754s5v4gNuGPsCo-12" edge="1">
                    <mxGeometry relative="1" as="geometry">
                        <mxPoint x="150" y="470" as="sourcePoint"/>
                        <mxPoint x="150" y="370" as="targetPoint"/>
                    </mxGeometry>
                </mxCell>
                <mxCell id="Y7KdL754s5v4gNuGPsCo-18" value="Indica" style="text;html=1;align=center;verticalAlign=middle;resizable=0;points=[];autosize=1;strokeColor=none;fillColor=none;" parent="1" vertex="1">
                    <mxGeometry x="-20" y="400" width="60" height="30" as="geometry"/>
                </mxCell>
                <mxCell id="Y7KdL754s5v4gNuGPsCo-20" value="É indicado" style="text;html=1;align=center;verticalAlign=middle;resizable=0;points=[];autosize=1;strokeColor=none;fillColor=none;" parent="1" vertex="1">
                    <mxGeometry x="155" y="400" width="80" height="30" as="geometry"/>
                </mxCell>
                <mxCell id="Y7KdL754s5v4gNuGPsCo-28" value="" style="endArrow=none;html=1;rounded=0;exitX=1;exitY=0.5;exitDx=0;exitDy=0;entryX=0;entryY=0.5;entryDx=0;entryDy=0;" parent="1" source="Y7KdL754s5v4gNuGPsCo-11" target="Y7KdL754s5v4gNuGPsCo-1" edge="1">
                    <mxGeometry relative="1" as="geometry">
                        <mxPoint x="250" y="350" as="sourcePoint"/>
                        <mxPoint x="410" y="350" as="targetPoint"/>
                    </mxGeometry>
                </mxCell>
                <mxCell id="Y7KdL754s5v4gNuGPsCo-30" value="N" style="resizable=0;html=1;whiteSpace=wrap;align=right;verticalAlign=bottom;" parent="Y7KdL754s5v4gNuGPsCo-28" connectable="0" vertex="1">
                    <mxGeometry x="1" relative="1" as="geometry"/>
                </mxCell>
                <mxCell id="Y7KdL754s5v4gNuGPsCo-31" value="" style="endArrow=none;html=1;rounded=0;exitX=1;exitY=0.5;exitDx=0;exitDy=0;entryX=0;entryY=0.5;entryDx=0;entryDy=0;" parent="1" source="Y7KdL754s5v4gNuGPsCo-3" target="Y7KdL754s5v4gNuGPsCo-11" edge="1">
                    <mxGeometry relative="1" as="geometry">
                        <mxPoint x="150" y="350" as="sourcePoint"/>
                        <mxPoint x="190" y="350" as="targetPoint"/>
                    </mxGeometry>
                </mxCell>
                <mxCell id="Y7KdL754s5v4gNuGPsCo-32" value="N" style="resizable=0;html=1;whiteSpace=wrap;align=left;verticalAlign=bottom;" parent="Y7KdL754s5v4gNuGPsCo-31" connectable="0" vertex="1">
                    <mxGeometry x="-1" relative="1" as="geometry"/>
                </mxCell>
                <mxCell id="Y7KdL754s5v4gNuGPsCo-35" value="Possui" style="shape=rhombus;perimeter=rhombusPerimeter;whiteSpace=wrap;html=1;align=center;" parent="1" vertex="1">
                    <mxGeometry x="500" y="450" width="120" height="60" as="geometry"/>
                </mxCell>
                <mxCell id="Y7KdL754s5v4gNuGPsCo-36" value="" style="shape=link;html=1;rounded=0;entryX=0.5;entryY=0;entryDx=0;entryDy=0;exitX=0.4;exitY=1.05;exitDx=0;exitDy=0;exitPerimeter=0;" parent="1" source="Y7KdL754s5v4gNuGPsCo-1" target="Y7KdL754s5v4gNuGPsCo-35" edge="1">
                    <mxGeometry relative="1" as="geometry">
                        <mxPoint x="440" y="430" as="sourcePoint"/>
                        <mxPoint x="600" y="430" as="targetPoint"/>
                    </mxGeometry>
                </mxCell>
                <mxCell id="Y7KdL754s5v4gNuGPsCo-38" value="N" style="resizable=0;html=1;whiteSpace=wrap;align=right;verticalAlign=bottom;" parent="Y7KdL754s5v4gNuGPsCo-36" connectable="0" vertex="1">
                    <mxGeometry x="1" relative="1" as="geometry">
                        <mxPoint x="-10" y="-60" as="offset"/>
                    </mxGeometry>
                </mxCell>
                <mxCell id="Y7KdL754s5v4gNuGPsCo-46" value="" style="endArrow=none;html=1;rounded=0;exitX=0.5;exitY=1;exitDx=0;exitDy=0;entryX=0.5;entryY=0;entryDx=0;entryDy=0;" parent="1" source="Y7KdL754s5v4gNuGPsCo-35" target="Y7KdL754s5v4gNuGPsCo-2" edge="1">
                    <mxGeometry relative="1" as="geometry">
                        <mxPoint x="490" y="530" as="sourcePoint"/>
                        <mxPoint x="560" y="590" as="targetPoint"/>
                    </mxGeometry>
                </mxCell>
                <mxCell id="Y7KdL754s5v4gNuGPsCo-47" value="N" style="resizable=0;html=1;whiteSpace=wrap;align=right;verticalAlign=bottom;" parent="Y7KdL754s5v4gNuGPsCo-46" connectable="0" vertex="1">
                    <mxGeometry x="1" relative="1" as="geometry"/>
                </mxCell>
                <mxCell id="Y7KdL754s5v4gNuGPsCo-48" value="" style="endArrow=none;html=1;rounded=0;entryX=0;entryY=0.5;entryDx=0;entryDy=0;exitX=1;exitY=0.5;exitDx=0;exitDy=0;" parent="1" source="Y7KdL754s5v4gNuGPsCo-35" target="Y7KdL754s5v4gNuGPsCo-6" edge="1">
                    <mxGeometry relative="1" as="geometry">
                        <mxPoint x="710" y="480" as="sourcePoint"/>
                        <mxPoint x="800" y="480" as="targetPoint"/>
                    </mxGeometry>
                </mxCell>
                <mxCell id="Y7KdL754s5v4gNuGPsCo-49" value="N" style="resizable=0;html=1;whiteSpace=wrap;align=right;verticalAlign=bottom;" parent="Y7KdL754s5v4gNuGPsCo-48" connectable="0" vertex="1">
                    <mxGeometry x="1" relative="1" as="geometry">
                        <mxPoint x="-10" as="offset"/>
                    </mxGeometry>
                </mxCell>
                <mxCell id="Y7KdL754s5v4gNuGPsCo-50" value="Tem" style="shape=rhombus;perimeter=rhombusPerimeter;whiteSpace=wrap;html=1;align=center;" parent="1" vertex="1">
                    <mxGeometry x="260" y="180" width="120" height="60" as="geometry"/>
                </mxCell>
                <mxCell id="Y7KdL754s5v4gNuGPsCo-58" value="Codigo" style="ellipse;whiteSpace=wrap;html=1;align=center;fontStyle=4;" parent="1" vertex="1">
                    <mxGeometry x="660" y="290" width="100" height="40" as="geometry"/>
                </mxCell>
                <mxCell id="Y7KdL754s5v4gNuGPsCo-59" style="rounded=0;orthogonalLoop=1;jettySize=auto;html=1;entryX=0.86;entryY=0;entryDx=0;entryDy=0;entryPerimeter=0;endArrow=none;endFill=0;" parent="1" source="Y7KdL754s5v4gNuGPsCo-58" target="Y7KdL754s5v4gNuGPsCo-1" edge="1">
                    <mxGeometry relative="1" as="geometry"/>
                </mxCell>
                <mxCell id="Y7KdL754s5v4gNuGPsCo-62" value="Alimentação" style="rounded=1;arcSize=10;whiteSpace=wrap;html=1;align=center;" parent="1" vertex="1">
                    <mxGeometry x="840" y="680" width="100" height="40" as="geometry"/>
                </mxCell>
                <mxCell id="Y7KdL754s5v4gNuGPsCo-63" value="Hospedagem" style="rounded=1;arcSize=10;whiteSpace=wrap;html=1;align=center;" parent="1" vertex="1">
                    <mxGeometry x="710" y="630" width="100" height="40" as="geometry"/>
                </mxCell>
                <mxCell id="Y7KdL754s5v4gNuGPsCo-64" value="Evento" style="rounded=1;arcSize=10;whiteSpace=wrap;html=1;align=center;" parent="1" vertex="1">
                    <mxGeometry x="960" y="660" width="110" height="50" as="geometry"/>
                </mxCell>
                <mxCell id="Y7KdL754s5v4gNuGPsCo-65" value="Transporte" style="rounded=1;arcSize=10;whiteSpace=wrap;html=1;align=center;" parent="1" vertex="1">
                    <mxGeometry x="1080" y="620" width="100" height="40" as="geometry"/>
                </mxCell>
                <mxCell id="Y7KdL754s5v4gNuGPsCo-66" value="d" style="ellipse;whiteSpace=wrap;html=1;aspect=fixed;" parent="1" vertex="1">
                    <mxGeometry x="910" y="550" width="20" height="20" as="geometry"/>
                </mxCell>
                <mxCell id="Y7KdL754s5v4gNuGPsCo-67" value="" style="shape=link;html=1;rounded=0;exitX=0.432;exitY=1.007;exitDx=0;exitDy=0;exitPerimeter=0;entryX=0.5;entryY=0;entryDx=0;entryDy=0;" parent="1" source="Y7KdL754s5v4gNuGPsCo-6" target="Y7KdL754s5v4gNuGPsCo-66" edge="1">
                    <mxGeometry relative="1" as="geometry">
                        <mxPoint x="890" y="520" as="sourcePoint"/>
                        <mxPoint x="910" y="570" as="targetPoint"/>
                    </mxGeometry>
                </mxCell>
                <mxCell id="Y7KdL754s5v4gNuGPsCo-82" value="Data Saída" style="ellipse;whiteSpace=wrap;html=1;align=center;" parent="1" vertex="1">
                    <mxGeometry x="270" y="535" width="100" height="40" as="geometry"/>
                </mxCell>
                <mxCell id="Y7KdL754s5v4gNuGPsCo-83" value="Data Entrada" style="ellipse;whiteSpace=wrap;html=1;align=center;" parent="1" vertex="1">
                    <mxGeometry x="210" y="590" width="100" height="40" as="geometry"/>
                </mxCell>
                <mxCell id="Y7KdL754s5v4gNuGPsCo-87" value="Data Modificação" style="ellipse;whiteSpace=wrap;html=1;align=center;" parent="1" vertex="1">
                    <mxGeometry x="390" y="525" width="100" height="50" as="geometry"/>
                </mxCell>
                <mxCell id="Y7KdL754s5v4gNuGPsCo-89" value="&lt;span style=&quot;border-bottom: 1px dotted&quot;&gt;Data_hora_reserva&lt;/span&gt;" style="ellipse;whiteSpace=wrap;html=1;align=center;" parent="1" vertex="1">
                    <mxGeometry x="135" y="525" width="115" height="45" as="geometry"/>
                </mxCell>
                <mxCell id="Y7KdL754s5v4gNuGPsCo-94" value="" style="endArrow=none;html=1;rounded=0;exitX=0.452;exitY=0.044;exitDx=0;exitDy=0;exitPerimeter=0;entryX=0.75;entryY=1;entryDx=0;entryDy=0;" parent="1" source="Y7KdL754s5v4gNuGPsCo-87" target="Y7KdL754s5v4gNuGPsCo-11" edge="1">
                    <mxGeometry width="50" height="50" relative="1" as="geometry">
                        <mxPoint x="360" y="470" as="sourcePoint"/>
                        <mxPoint x="410" y="420" as="targetPoint"/>
                    </mxGeometry>
                </mxCell>
                <mxCell id="Y7KdL754s5v4gNuGPsCo-96" value="" style="endArrow=none;html=1;rounded=0;exitX=0.344;exitY=0.054;exitDx=0;exitDy=0;entryX=0.689;entryY=1.032;entryDx=0;entryDy=0;entryPerimeter=0;exitPerimeter=0;" parent="1" source="Y7KdL754s5v4gNuGPsCo-106" target="Y7KdL754s5v4gNuGPsCo-11" edge="1">
                    <mxGeometry width="50" height="50" relative="1" as="geometry">
                        <mxPoint x="375" y="590" as="sourcePoint"/>
                        <mxPoint x="310" y="460" as="targetPoint"/>
                    </mxGeometry>
                </mxCell>
                <mxCell id="Y7KdL754s5v4gNuGPsCo-95" value="" style="endArrow=none;html=1;rounded=0;exitX=0.5;exitY=0;exitDx=0;exitDy=0;entryX=0.25;entryY=1;entryDx=0;entryDy=0;" parent="1" source="Y7KdL754s5v4gNuGPsCo-89" target="Y7KdL754s5v4gNuGPsCo-11" edge="1">
                    <mxGeometry width="50" height="50" relative="1" as="geometry">
                        <mxPoint x="300" y="527" as="sourcePoint"/>
                        <mxPoint x="280" y="395" as="targetPoint"/>
                    </mxGeometry>
                </mxCell>
                <mxCell id="Y7KdL754s5v4gNuGPsCo-97" value="" style="endArrow=none;html=1;rounded=0;exitX=0.5;exitY=0;exitDx=0;exitDy=0;entryX=0.393;entryY=0.996;entryDx=0;entryDy=0;entryPerimeter=0;" parent="1" source="Y7KdL754s5v4gNuGPsCo-83" target="Y7KdL754s5v4gNuGPsCo-11" edge="1">
                    <mxGeometry width="50" height="50" relative="1" as="geometry">
                        <mxPoint x="320" y="540" as="sourcePoint"/>
                        <mxPoint x="370" y="490" as="targetPoint"/>
                    </mxGeometry>
                </mxCell>
                <mxCell id="Y7KdL754s5v4gNuGPsCo-98" value="" style="endArrow=none;html=1;rounded=0;entryX=0.617;entryY=1.032;entryDx=0;entryDy=0;entryPerimeter=0;exitX=0.5;exitY=0;exitDx=0;exitDy=0;" parent="1" source="Y7KdL754s5v4gNuGPsCo-82" target="Y7KdL754s5v4gNuGPsCo-11" edge="1">
                    <mxGeometry width="50" height="50" relative="1" as="geometry">
                        <mxPoint x="320" y="500" as="sourcePoint"/>
                        <mxPoint x="370" y="430" as="targetPoint"/>
                    </mxGeometry>
                </mxCell>
                <mxCell id="Y7KdL754s5v4gNuGPsCo-106" value="Status" style="ellipse;whiteSpace=wrap;html=1;align=center;" parent="1" vertex="1">
                    <mxGeometry x="360" y="592.53" width="100" height="40" as="geometry"/>
                </mxCell>
                <mxCell id="Y7KdL754s5v4gNuGPsCo-108" value="Nome Pacote" style="ellipse;whiteSpace=wrap;html=1;align=center;" parent="1" vertex="1">
                    <mxGeometry x="590" y="240" width="100" height="40" as="geometry"/>
                </mxCell>
                <mxCell id="Y7KdL754s5v4gNuGPsCo-110" style="rounded=0;orthogonalLoop=1;jettySize=auto;html=1;endArrow=none;endFill=0;" parent="1" source="Y7KdL754s5v4gNuGPsCo-109" target="Y7KdL754s5v4gNuGPsCo-1" edge="1">
                    <mxGeometry relative="1" as="geometry"/>
                </mxCell>
                <mxCell id="Y7KdL754s5v4gNuGPsCo-109" value="Preço base" style="ellipse;whiteSpace=wrap;html=1;align=center;" parent="1" vertex="1">
                    <mxGeometry x="475" y="240" width="100" height="40" as="geometry"/>
                </mxCell>
                <mxCell id="Y7KdL754s5v4gNuGPsCo-111" style="rounded=0;orthogonalLoop=1;jettySize=auto;html=1;entryX=0.593;entryY=0.003;entryDx=0;entryDy=0;entryPerimeter=0;endArrow=none;endFill=0;" parent="1" source="Y7KdL754s5v4gNuGPsCo-108" target="Y7KdL754s5v4gNuGPsCo-1" edge="1">
                    <mxGeometry relative="1" as="geometry"/>
                </mxCell>
                <mxCell id="Y7KdL754s5v4gNuGPsCo-118" value="Código" style="ellipse;whiteSpace=wrap;html=1;align=center;fontStyle=4;" parent="1" vertex="1">
                    <mxGeometry x="420" y="40" width="100" height="40" as="geometry"/>
                </mxCell>
                <mxCell id="Y7KdL754s5v4gNuGPsCo-119" style="rounded=0;orthogonalLoop=1;jettySize=auto;html=1;entryX=1;entryY=0;entryDx=0;entryDy=0;endArrow=none;endFill=0;" parent="1" source="Y7KdL754s5v4gNuGPsCo-118" target="Y7KdL754s5v4gNuGPsCo-7" edge="1">
                    <mxGeometry relative="1" as="geometry">
                        <mxPoint x="366" y="80" as="targetPoint"/>
                    </mxGeometry>
                </mxCell>
                <mxCell id="Y7KdL754s5v4gNuGPsCo-120" value="Nome" style="ellipse;whiteSpace=wrap;html=1;align=center;" parent="1" vertex="1">
                    <mxGeometry x="350" y="-10" width="100" height="40" as="geometry"/>
                </mxCell>
                <mxCell id="Y7KdL754s5v4gNuGPsCo-121" style="rounded=0;orthogonalLoop=1;jettySize=auto;html=1;endArrow=none;endFill=0;entryX=0.25;entryY=0;entryDx=0;entryDy=0;" parent="1" source="Y7KdL754s5v4gNuGPsCo-122" target="Y7KdL754s5v4gNuGPsCo-7" edge="1">
                    <mxGeometry relative="1" as="geometry">
                        <mxPoint x="320" y="80" as="targetPoint"/>
                    </mxGeometry>
                </mxCell>
                <mxCell id="Y7KdL754s5v4gNuGPsCo-122" value="Desconto" style="ellipse;whiteSpace=wrap;html=1;align=center;" parent="1" vertex="1">
                    <mxGeometry x="235" y="-10" width="100" height="40" as="geometry"/>
                </mxCell>
                <mxCell id="Y7KdL754s5v4gNuGPsCo-123" style="rounded=0;orthogonalLoop=1;jettySize=auto;html=1;entryX=0.5;entryY=0;entryDx=0;entryDy=0;endArrow=none;endFill=0;" parent="1" source="Y7KdL754s5v4gNuGPsCo-120" target="Y7KdL754s5v4gNuGPsCo-7" edge="1">
                    <mxGeometry relative="1" as="geometry">
                        <mxPoint x="339" y="80" as="targetPoint"/>
                    </mxGeometry>
                </mxCell>
                <mxCell id="Y7KdL754s5v4gNuGPsCo-124" value="CPF" style="ellipse;whiteSpace=wrap;html=1;align=center;fontStyle=4;" parent="1" vertex="1">
                    <mxGeometry x="135" y="260" width="100" height="40" as="geometry"/>
                </mxCell>
                <mxCell id="Y7KdL754s5v4gNuGPsCo-125" style="rounded=0;orthogonalLoop=1;jettySize=auto;html=1;entryX=1;entryY=0;entryDx=0;entryDy=0;endArrow=none;endFill=0;" parent="1" source="Y7KdL754s5v4gNuGPsCo-124" target="Y7KdL754s5v4gNuGPsCo-3" edge="1">
                    <mxGeometry relative="1" as="geometry">
                        <mxPoint x="-69" y="290" as="targetPoint"/>
                    </mxGeometry>
                </mxCell>
                <mxCell id="Y7KdL754s5v4gNuGPsCo-126" value="Nome" style="ellipse;whiteSpace=wrap;html=1;align=center;" parent="1" vertex="1">
                    <mxGeometry x="30" y="220" width="100" height="40" as="geometry"/>
                </mxCell>
                <mxCell id="Y7KdL754s5v4gNuGPsCo-127" style="rounded=0;orthogonalLoop=1;jettySize=auto;html=1;endArrow=none;endFill=0;entryX=0.25;entryY=0;entryDx=0;entryDy=0;" parent="1" source="Y7KdL754s5v4gNuGPsCo-128" target="Y7KdL754s5v4gNuGPsCo-3" edge="1">
                    <mxGeometry relative="1" as="geometry">
                        <mxPoint x="-115" y="290" as="targetPoint"/>
                    </mxGeometry>
                </mxCell>
                <mxCell id="Y7KdL754s5v4gNuGPsCo-128" value="Email" style="ellipse;whiteSpace=wrap;html=1;align=center;" parent="1" vertex="1">
                    <mxGeometry x="-50" y="150" width="100" height="40" as="geometry"/>
                </mxCell>
                <mxCell id="Y7KdL754s5v4gNuGPsCo-129" style="rounded=0;orthogonalLoop=1;jettySize=auto;html=1;entryX=0.5;entryY=0;entryDx=0;entryDy=0;endArrow=none;endFill=0;" parent="1" source="Y7KdL754s5v4gNuGPsCo-126" target="Y7KdL754s5v4gNuGPsCo-3" edge="1">
                    <mxGeometry relative="1" as="geometry">
                        <mxPoint x="-96" y="290" as="targetPoint"/>
                    </mxGeometry>
                </mxCell>
                <mxCell id="Y7KdL754s5v4gNuGPsCo-130" style="rounded=0;orthogonalLoop=1;jettySize=auto;html=1;endArrow=none;endFill=0;entryX=0.167;entryY=0;entryDx=0;entryDy=0;entryPerimeter=0;" parent="1" source="Y7KdL754s5v4gNuGPsCo-131" target="Y7KdL754s5v4gNuGPsCo-3" edge="1">
                    <mxGeometry relative="1" as="geometry">
                        <mxPoint x="10" y="400" as="targetPoint"/>
                    </mxGeometry>
                </mxCell>
                <mxCell id="Y7KdL754s5v4gNuGPsCo-131" value="Data_Registro" style="ellipse;whiteSpace=wrap;html=1;align=center;" parent="1" vertex="1">
                    <mxGeometry x="-100" y="200" width="100" height="40" as="geometry"/>
                </mxCell>
                <mxCell id="Y7KdL754s5v4gNuGPsCo-132" style="rounded=0;orthogonalLoop=1;jettySize=auto;html=1;endArrow=none;endFill=0;entryX=0.669;entryY=-0.014;entryDx=0;entryDy=0;entryPerimeter=0;" parent="1" source="Y7KdL754s5v4gNuGPsCo-133" target="Y7KdL754s5v4gNuGPsCo-3" edge="1">
                    <mxGeometry relative="1" as="geometry">
                        <mxPoint x="-15" y="450" as="targetPoint"/>
                    </mxGeometry>
                </mxCell>
                <mxCell id="Y7KdL754s5v4gNuGPsCo-133" value="Pontos de Fidelidade" style="ellipse;whiteSpace=wrap;html=1;align=center;" parent="1" vertex="1">
                    <mxGeometry x="110" y="160" width="100" height="40" as="geometry"/>
                </mxCell>
                <mxCell id="Y7KdL754s5v4gNuGPsCo-136" value="CNPJ" style="ellipse;whiteSpace=wrap;html=1;align=center;fontStyle=4;" parent="1" vertex="1">
                    <mxGeometry x="1045" y="420" width="100" height="40" as="geometry"/>
                </mxCell>
                <mxCell id="Y7KdL754s5v4gNuGPsCo-137" style="rounded=0;orthogonalLoop=1;jettySize=auto;html=1;entryX=1;entryY=0;entryDx=0;entryDy=0;endArrow=none;endFill=0;" parent="1" source="Y7KdL754s5v4gNuGPsCo-136" target="Y7KdL754s5v4gNuGPsCo-6" edge="1">
                    <mxGeometry relative="1" as="geometry">
                        <mxPoint x="991" y="460" as="targetPoint"/>
                    </mxGeometry>
                </mxCell>
                <mxCell id="Y7KdL754s5v4gNuGPsCo-139" style="rounded=0;orthogonalLoop=1;jettySize=auto;html=1;endArrow=none;endFill=0;entryX=0.5;entryY=0;entryDx=0;entryDy=0;" parent="1" source="Y7KdL754s5v4gNuGPsCo-140" target="Y7KdL754s5v4gNuGPsCo-6" edge="1">
                    <mxGeometry relative="1" as="geometry">
                        <mxPoint x="945" y="460" as="targetPoint"/>
                    </mxGeometry>
                </mxCell>
                <mxCell id="Y7KdL754s5v4gNuGPsCo-140" value="Nome Empresa" style="ellipse;whiteSpace=wrap;html=1;align=center;" parent="1" vertex="1">
                    <mxGeometry x="860" y="370" width="100" height="40" as="geometry"/>
                </mxCell>
                <mxCell id="Y7KdL754s5v4gNuGPsCo-141" style="rounded=0;orthogonalLoop=1;jettySize=auto;html=1;entryX=0.75;entryY=0;entryDx=0;entryDy=0;endArrow=none;endFill=0;exitX=0.227;exitY=0.896;exitDx=0;exitDy=0;exitPerimeter=0;" parent="1" source="Y7KdL754s5v4gNuGPsCo-142" target="Y7KdL754s5v4gNuGPsCo-6" edge="1">
                    <mxGeometry relative="1" as="geometry">
                        <mxPoint x="1008.5826917592035" y="408.8911492085882" as="sourcePoint"/>
                        <mxPoint x="964" y="460" as="targetPoint"/>
                    </mxGeometry>
                </mxCell>
                <mxCell id="MZW9BxYWKJyln-hkFQs6-3" style="rounded=0;orthogonalLoop=1;jettySize=auto;html=1;exitX=0.5;exitY=0;exitDx=0;exitDy=0;entryX=0.5;entryY=1;entryDx=0;entryDy=0;endArrow=none;endFill=0;" parent="1" source="Y7KdL754s5v4gNuGPsCo-142" target="MZW9BxYWKJyln-hkFQs6-1" edge="1">
                    <mxGeometry relative="1" as="geometry"/>
                </mxCell>
                <mxCell id="Y7KdL754s5v4gNuGPsCo-142" value="Contato" style="ellipse;shape=doubleEllipse;margin=3;whiteSpace=wrap;html=1;align=center;" parent="1" vertex="1">
                    <mxGeometry x="980" y="370" width="100" height="40" as="geometry"/>
                </mxCell>
                <mxCell id="MZW9BxYWKJyln-hkFQs6-1" value="Telefone" style="ellipse;whiteSpace=wrap;html=1;align=center;" parent="1" vertex="1">
                    <mxGeometry x="990" y="280" width="100" height="40" as="geometry"/>
                </mxCell>
                <mxCell id="MZW9BxYWKJyln-hkFQs6-2" value="Email" style="ellipse;whiteSpace=wrap;html=1;align=center;" parent="1" vertex="1">
                    <mxGeometry x="1110" y="310" width="100" height="40" as="geometry"/>
                </mxCell>
                <mxCell id="MZW9BxYWKJyln-hkFQs6-4" style="rounded=0;orthogonalLoop=1;jettySize=auto;html=1;exitX=1;exitY=0.5;exitDx=0;exitDy=0;entryX=0;entryY=1;entryDx=0;entryDy=0;endArrow=none;endFill=0;" parent="1" source="Y7KdL754s5v4gNuGPsCo-142" target="MZW9BxYWKJyln-hkFQs6-2" edge="1">
                    <mxGeometry relative="1" as="geometry"/>
                </mxCell>
                <mxCell id="MZW9BxYWKJyln-hkFQs6-9" style="rounded=0;orthogonalLoop=1;jettySize=auto;html=1;entryX=0;entryY=1;entryDx=0;entryDy=0;endArrow=none;endFill=0;" parent="1" source="MZW9BxYWKJyln-hkFQs6-5" target="Y7KdL754s5v4gNuGPsCo-2" edge="1">
                    <mxGeometry relative="1" as="geometry"/>
                </mxCell>
                <mxCell id="MZW9BxYWKJyln-hkFQs6-5" value="Nome" style="ellipse;whiteSpace=wrap;html=1;align=center;" parent="1" vertex="1">
                    <mxGeometry x="310" y="780" width="100" height="40" as="geometry"/>
                </mxCell>
                <mxCell id="MZW9BxYWKJyln-hkFQs6-10" style="rounded=0;orthogonalLoop=1;jettySize=auto;html=1;endArrow=none;endFill=0;" parent="1" source="MZW9BxYWKJyln-hkFQs6-6" target="Y7KdL754s5v4gNuGPsCo-2" edge="1">
                    <mxGeometry relative="1" as="geometry"/>
                </mxCell>
                <mxCell id="MZW9BxYWKJyln-hkFQs6-6" value="Descrição" style="ellipse;whiteSpace=wrap;html=1;align=center;" parent="1" vertex="1">
                    <mxGeometry x="410" y="750" width="100" height="40" as="geometry"/>
                </mxCell>
                <mxCell id="MZW9BxYWKJyln-hkFQs6-11" style="rounded=0;orthogonalLoop=1;jettySize=auto;html=1;entryX=0.5;entryY=1;entryDx=0;entryDy=0;endArrow=none;endFill=0;" parent="1" source="MZW9BxYWKJyln-hkFQs6-7" target="Y7KdL754s5v4gNuGPsCo-2" edge="1">
                    <mxGeometry relative="1" as="geometry"/>
                </mxCell>
                <mxCell id="MZW9BxYWKJyln-hkFQs6-7" value="Duração" style="ellipse;whiteSpace=wrap;html=1;align=center;" parent="1" vertex="1">
                    <mxGeometry x="440" y="810" width="100" height="40" as="geometry"/>
                </mxCell>
                <mxCell id="MZW9BxYWKJyln-hkFQs6-12" style="rounded=0;orthogonalLoop=1;jettySize=auto;html=1;entryX=0.75;entryY=1;entryDx=0;entryDy=0;endArrow=none;endFill=0;exitX=0.5;exitY=0;exitDx=0;exitDy=0;" parent="1" source="92sjB8mAr_glqfk4af3z-4" target="Y7KdL754s5v4gNuGPsCo-2" edge="1">
                    <mxGeometry relative="1" as="geometry">
                        <mxPoint x="574.2184819336678" y="750.071309485777" as="sourcePoint"/>
                    </mxGeometry>
                </mxCell>
                <mxCell id="MZW9BxYWKJyln-hkFQs6-14" style="rounded=0;orthogonalLoop=1;jettySize=auto;html=1;entryX=0;entryY=0.75;entryDx=0;entryDy=0;endArrow=none;endFill=0;exitX=1;exitY=0;exitDx=0;exitDy=0;" parent="1" source="MZW9BxYWKJyln-hkFQs6-15" target="Y7KdL754s5v4gNuGPsCo-2" edge="1">
                    <mxGeometry relative="1" as="geometry">
                        <mxPoint x="686.5676783369918" y="770.735222878054" as="sourcePoint"/>
                    </mxGeometry>
                </mxCell>
                <mxCell id="MZW9BxYWKJyln-hkFQs6-15" value="Código" style="ellipse;whiteSpace=wrap;html=1;align=center;fontStyle=4;" parent="1" vertex="1">
                    <mxGeometry x="310" y="720" width="100" height="40" as="geometry"/>
                </mxCell>
                <mxCell id="MZW9BxYWKJyln-hkFQs6-20" value="" style="shape=link;html=1;rounded=0;entryX=0;entryY=0.5;entryDx=0;entryDy=0;exitX=1;exitY=0.5;exitDx=0;exitDy=0;" parent="1" source="MZW9BxYWKJyln-hkFQs6-27" target="MZW9BxYWKJyln-hkFQs6-19" edge="1">
                    <mxGeometry relative="1" as="geometry">
                        <mxPoint x="-320" y="350" as="sourcePoint"/>
                        <mxPoint x="-240" y="349.13" as="targetPoint"/>
                    </mxGeometry>
                </mxCell>
                <mxCell id="MZW9BxYWKJyln-hkFQs6-21" value="N" style="resizable=0;html=1;whiteSpace=wrap;align=left;verticalAlign=bottom;" parent="MZW9BxYWKJyln-hkFQs6-20" connectable="0" vertex="1">
                    <mxGeometry x="-1" relative="1" as="geometry"/>
                </mxCell>
                <mxCell id="MZW9BxYWKJyln-hkFQs6-19" value="Possui" style="shape=rhombus;double=1;perimeter=rhombusPerimeter;whiteSpace=wrap;html=1;align=center;" parent="1" vertex="1">
                    <mxGeometry x="-210" y="320" width="120" height="60" as="geometry"/>
                </mxCell>
                <mxCell id="MZW9BxYWKJyln-hkFQs6-23" value="" style="endArrow=none;html=1;rounded=0;entryX=0;entryY=0.5;entryDx=0;entryDy=0;exitX=1;exitY=0.5;exitDx=0;exitDy=0;" parent="1" source="MZW9BxYWKJyln-hkFQs6-19" target="Y7KdL754s5v4gNuGPsCo-3" edge="1">
                    <mxGeometry relative="1" as="geometry">
                        <mxPoint x="-130" y="390" as="sourcePoint"/>
                        <mxPoint x="30" y="390" as="targetPoint"/>
                    </mxGeometry>
                </mxCell>
                <mxCell id="MZW9BxYWKJyln-hkFQs6-27" value="Dependente" style="shape=ext;margin=3;double=1;whiteSpace=wrap;html=1;align=center;" parent="1" vertex="1">
                    <mxGeometry x="-370" y="320" width="110" height="60" as="geometry"/>
                </mxCell>
                <mxCell id="MZW9BxYWKJyln-hkFQs6-29" style="rounded=0;orthogonalLoop=1;jettySize=auto;html=1;entryX=0.5;entryY=0;entryDx=0;entryDy=0;endArrow=none;endFill=0;" parent="1" source="MZW9BxYWKJyln-hkFQs6-28" target="MZW9BxYWKJyln-hkFQs6-27" edge="1">
                    <mxGeometry relative="1" as="geometry"/>
                </mxCell>
                <mxCell id="MZW9BxYWKJyln-hkFQs6-28" value="&lt;span style=&quot;border-bottom: 1px dotted&quot;&gt;Nome&lt;/span&gt;" style="ellipse;whiteSpace=wrap;html=1;align=center;" parent="1" vertex="1">
                    <mxGeometry x="-460" y="240" width="100" height="40" as="geometry"/>
                </mxCell>
                <mxCell id="MZW9BxYWKJyln-hkFQs6-35" style="rounded=0;orthogonalLoop=1;jettySize=auto;html=1;entryX=0;entryY=1;entryDx=0;entryDy=0;endArrow=none;endFill=0;" parent="1" source="MZW9BxYWKJyln-hkFQs6-32" target="MZW9BxYWKJyln-hkFQs6-27" edge="1">
                    <mxGeometry relative="1" as="geometry"/>
                </mxCell>
                <mxCell id="MZW9BxYWKJyln-hkFQs6-32" value="Idade" style="ellipse;whiteSpace=wrap;html=1;align=center;" parent="1" vertex="1">
                    <mxGeometry x="-530" y="380" width="100" height="40" as="geometry"/>
                </mxCell>
                <mxCell id="MZW9BxYWKJyln-hkFQs6-34" style="rounded=0;orthogonalLoop=1;jettySize=auto;html=1;endArrow=none;endFill=0;" parent="1" source="MZW9BxYWKJyln-hkFQs6-33" target="MZW9BxYWKJyln-hkFQs6-27" edge="1">
                    <mxGeometry relative="1" as="geometry"/>
                </mxCell>
                <mxCell id="MZW9BxYWKJyln-hkFQs6-33" value="Parentesco" style="ellipse;whiteSpace=wrap;html=1;align=center;" parent="1" vertex="1">
                    <mxGeometry x="-540" y="310" width="100" height="40" as="geometry"/>
                </mxCell>
                <mxCell id="MZW9BxYWKJyln-hkFQs6-49" style="rounded=0;orthogonalLoop=1;jettySize=auto;html=1;entryX=0.25;entryY=1;entryDx=0;entryDy=0;endArrow=none;endFill=0;" parent="1" source="MZW9BxYWKJyln-hkFQs6-50" target="Y7KdL754s5v4gNuGPsCo-63" edge="1">
                    <mxGeometry relative="1" as="geometry">
                        <mxPoint x="665" y="720" as="targetPoint"/>
                    </mxGeometry>
                </mxCell>
                <mxCell id="MZW9BxYWKJyln-hkFQs6-50" value="Classificação" style="ellipse;whiteSpace=wrap;html=1;align=center;" parent="1" vertex="1">
                    <mxGeometry x="650" y="790" width="100" height="40" as="geometry"/>
                </mxCell>
                <mxCell id="MZW9BxYWKJyln-hkFQs6-51" style="rounded=0;orthogonalLoop=1;jettySize=auto;html=1;entryX=0.5;entryY=1;entryDx=0;entryDy=0;endArrow=none;endFill=0;exitX=0.264;exitY=0.011;exitDx=0;exitDy=0;exitPerimeter=0;" parent="1" source="MZW9BxYWKJyln-hkFQs6-52" target="Y7KdL754s5v4gNuGPsCo-63" edge="1">
                    <mxGeometry relative="1" as="geometry">
                        <mxPoint x="780" y="690" as="targetPoint"/>
                        <mxPoint x="788.1066221263382" y="770.0143446669038" as="sourcePoint"/>
                    </mxGeometry>
                </mxCell>
                <mxCell id="MZW9BxYWKJyln-hkFQs6-52" value="Acomodação" style="ellipse;whiteSpace=wrap;html=1;align=center;" parent="1" vertex="1">
                    <mxGeometry x="730" y="720.0000000000001" width="100" height="40" as="geometry"/>
                </mxCell>
                <mxCell id="MZW9BxYWKJyln-hkFQs6-53" value="" style="shape=requiredInterface;html=1;verticalLabelPosition=bottom;sketch=0;direction=east;flipH=0;rotation=50;strokeWidth=2;" parent="1" vertex="1">
                    <mxGeometry x="955.81" y="592.53" width="15.98" height="27.28" as="geometry"/>
                </mxCell>
                <mxCell id="Y7KdL754s5v4gNuGPsCo-71" style="rounded=0;orthogonalLoop=1;jettySize=auto;html=1;entryX=1;entryY=0;entryDx=0;entryDy=0;endArrow=none;endFill=0;" parent="1" source="Y7KdL754s5v4gNuGPsCo-66" target="Y7KdL754s5v4gNuGPsCo-63" edge="1">
                    <mxGeometry relative="1" as="geometry">
                        <mxPoint x="780" y="650" as="targetPoint"/>
                    </mxGeometry>
                </mxCell>
                <mxCell id="Y7KdL754s5v4gNuGPsCo-73" style="rounded=0;orthogonalLoop=1;jettySize=auto;html=1;endArrow=none;endFill=0;exitX=0.333;exitY=1.11;exitDx=0;exitDy=0;exitPerimeter=0;" parent="1" source="Y7KdL754s5v4gNuGPsCo-66" edge="1">
                    <mxGeometry relative="1" as="geometry">
                        <mxPoint x="890" y="680" as="targetPoint"/>
                    </mxGeometry>
                </mxCell>
                <mxCell id="Y7KdL754s5v4gNuGPsCo-74" style="rounded=0;orthogonalLoop=1;jettySize=auto;html=1;entryX=0.5;entryY=0;entryDx=0;entryDy=0;endArrow=none;endFill=0;" parent="1" source="Y7KdL754s5v4gNuGPsCo-66" target="Y7KdL754s5v4gNuGPsCo-64" edge="1">
                    <mxGeometry relative="1" as="geometry"/>
                </mxCell>
                <mxCell id="Y7KdL754s5v4gNuGPsCo-75" style="rounded=0;orthogonalLoop=1;jettySize=auto;html=1;entryX=0.5;entryY=0;entryDx=0;entryDy=0;endArrow=none;endFill=0;" parent="1" source="Y7KdL754s5v4gNuGPsCo-66" target="Y7KdL754s5v4gNuGPsCo-65" edge="1">
                    <mxGeometry relative="1" as="geometry"/>
                </mxCell>
                <mxCell id="MZW9BxYWKJyln-hkFQs6-56" value="" style="shape=requiredInterface;html=1;verticalLabelPosition=bottom;sketch=0;direction=north;flipH=1;rotation=20;strokeWidth=2;flipV=1;" parent="1" vertex="1">
                    <mxGeometry x="893" y="614.02" width="27.28" height="15.98" as="geometry"/>
                </mxCell>
                <mxCell id="MZW9BxYWKJyln-hkFQs6-58" value="" style="shape=requiredInterface;html=1;verticalLabelPosition=bottom;sketch=0;direction=north;flipH=1;rotation=40;strokeWidth=2;flipV=1;" parent="1" vertex="1">
                    <mxGeometry x="840" y="592.53" width="27.28" height="15.98" as="geometry"/>
                </mxCell>
                <mxCell id="MZW9BxYWKJyln-hkFQs6-59" value="" style="shape=requiredInterface;html=1;verticalLabelPosition=bottom;sketch=0;direction=east;flipH=0;rotation=20;strokeWidth=2;" parent="1" vertex="1">
                    <mxGeometry x="1012.01" y="577.72" width="15.98" height="27.28" as="geometry"/>
                </mxCell>
                <mxCell id="MZW9BxYWKJyln-hkFQs6-61" style="rounded=0;orthogonalLoop=1;jettySize=auto;html=1;entryX=0.25;entryY=1;entryDx=0;entryDy=0;endArrow=none;endFill=0;" parent="1" source="MZW9BxYWKJyln-hkFQs6-62" target="Y7KdL754s5v4gNuGPsCo-62" edge="1">
                    <mxGeometry relative="1" as="geometry">
                        <mxPoint x="910" y="750" as="targetPoint"/>
                    </mxGeometry>
                </mxCell>
                <mxCell id="MZW9BxYWKJyln-hkFQs6-62" value="Classificação" style="ellipse;whiteSpace=wrap;html=1;align=center;" parent="1" vertex="1">
                    <mxGeometry x="803.64" y="845" width="100" height="40" as="geometry"/>
                </mxCell>
                <mxCell id="MZW9BxYWKJyln-hkFQs6-63" style="rounded=0;orthogonalLoop=1;jettySize=auto;html=1;entryX=0.5;entryY=1;entryDx=0;entryDy=0;endArrow=none;endFill=0;" parent="1" source="MZW9BxYWKJyln-hkFQs6-64" target="Y7KdL754s5v4gNuGPsCo-62" edge="1">
                    <mxGeometry relative="1" as="geometry">
                        <mxPoint x="1000" y="750" as="targetPoint"/>
                    </mxGeometry>
                </mxCell>
                <mxCell id="MZW9BxYWKJyln-hkFQs6-64" value="Serviço" style="ellipse;whiteSpace=wrap;html=1;align=center;" parent="1" vertex="1">
                    <mxGeometry x="871.79" y="770" width="100" height="40" as="geometry"/>
                </mxCell>
                <mxCell id="MZW9BxYWKJyln-hkFQs6-65" style="rounded=0;orthogonalLoop=1;jettySize=auto;html=1;entryX=0.25;entryY=1;entryDx=0;entryDy=0;endArrow=none;endFill=0;" parent="1" source="MZW9BxYWKJyln-hkFQs6-66" target="Y7KdL754s5v4gNuGPsCo-64" edge="1">
                    <mxGeometry relative="1" as="geometry">
                        <mxPoint x="1060" y="750" as="targetPoint"/>
                    </mxGeometry>
                </mxCell>
                <mxCell id="MZW9BxYWKJyln-hkFQs6-66" value="Tipo" style="ellipse;whiteSpace=wrap;html=1;align=center;" parent="1" vertex="1">
                    <mxGeometry x="980" y="820" width="100" height="40" as="geometry"/>
                </mxCell>
                <mxCell id="MZW9BxYWKJyln-hkFQs6-67" style="rounded=0;orthogonalLoop=1;jettySize=auto;html=1;entryX=0.5;entryY=1;entryDx=0;entryDy=0;endArrow=none;endFill=0;" parent="1" source="MZW9BxYWKJyln-hkFQs6-68" target="Y7KdL754s5v4gNuGPsCo-64" edge="1">
                    <mxGeometry relative="1" as="geometry">
                        <mxPoint x="1150" y="722.5" as="targetPoint"/>
                    </mxGeometry>
                </mxCell>
                <mxCell id="MZW9BxYWKJyln-hkFQs6-68" value="Capacidade Máxima" style="ellipse;whiteSpace=wrap;html=1;align=center;" parent="1" vertex="1">
                    <mxGeometry x="1040" y="750" width="100" height="40" as="geometry"/>
                </mxCell>
                <mxCell id="MZW9BxYWKJyln-hkFQs6-69" style="rounded=0;orthogonalLoop=1;jettySize=auto;html=1;exitX=0.5;exitY=0;exitDx=0;exitDy=0;endArrow=none;endFill=0;" parent="1" source="MZW9BxYWKJyln-hkFQs6-70" target="MZW9BxYWKJyln-hkFQs6-71" edge="1">
                    <mxGeometry relative="1" as="geometry"/>
                </mxCell>
                <mxCell id="sqni71poexYiaZ88xS5l-3" style="rounded=0;orthogonalLoop=1;jettySize=auto;html=1;entryX=1;entryY=0.25;entryDx=0;entryDy=0;endArrow=none;endFill=0;" parent="1" source="MZW9BxYWKJyln-hkFQs6-70" target="Y7KdL754s5v4gNuGPsCo-65" edge="1">
                    <mxGeometry relative="1" as="geometry"/>
                </mxCell>
                <mxCell id="MZW9BxYWKJyln-hkFQs6-70" value="Frota" style="ellipse;shape=doubleEllipse;margin=3;whiteSpace=wrap;html=1;align=center;" parent="1" vertex="1">
                    <mxGeometry x="1210" y="575" width="100" height="40" as="geometry"/>
                </mxCell>
                <mxCell id="MZW9BxYWKJyln-hkFQs6-71" value="Veículo" style="ellipse;whiteSpace=wrap;html=1;align=center;" parent="1" vertex="1">
                    <mxGeometry x="1310" y="625" width="100" height="40" as="geometry"/>
                </mxCell>
                <mxCell id="MZW9BxYWKJyln-hkFQs6-72" value="Quantidade" style="ellipse;whiteSpace=wrap;html=1;align=center;" parent="1" vertex="1">
                    <mxGeometry x="1320" y="535" width="100" height="40" as="geometry"/>
                </mxCell>
                <mxCell id="MZW9BxYWKJyln-hkFQs6-73" style="rounded=0;orthogonalLoop=1;jettySize=auto;html=1;exitX=1;exitY=0.5;exitDx=0;exitDy=0;entryX=0;entryY=1;entryDx=0;entryDy=0;endArrow=none;endFill=0;" parent="1" source="MZW9BxYWKJyln-hkFQs6-70" target="MZW9BxYWKJyln-hkFQs6-72" edge="1">
                    <mxGeometry relative="1" as="geometry"/>
                </mxCell>
                <mxCell id="MZW9BxYWKJyln-hkFQs6-77" style="rounded=0;orthogonalLoop=1;jettySize=auto;html=1;entryX=0;entryY=0;entryDx=0;entryDy=0;endArrow=none;endFill=0;" parent="1" source="MZW9BxYWKJyln-hkFQs6-76" target="Y7KdL754s5v4gNuGPsCo-3" edge="1">
                    <mxGeometry relative="1" as="geometry"/>
                </mxCell>
                <mxCell id="MZW9BxYWKJyln-hkFQs6-76" value="Telefone" style="ellipse;whiteSpace=wrap;html=1;align=center;" parent="1" vertex="1">
                    <mxGeometry x="-150" y="250" width="100" height="40" as="geometry"/>
                </mxCell>
                <mxCell id="MZW9BxYWKJyln-hkFQs6-83" value="" style="group" parent="1" connectable="0" vertex="1">
                    <mxGeometry x="250" y="290" width="140" height="100" as="geometry"/>
                </mxCell>
                <mxCell id="Y7KdL754s5v4gNuGPsCo-11" value="Reserva" style="shape=associativeEntity;whiteSpace=wrap;html=1;align=center;" parent="MZW9BxYWKJyln-hkFQs6-83" vertex="1">
                    <mxGeometry y="20" width="140" height="80" as="geometry"/>
                </mxCell>
                <mxCell id="MZW9BxYWKJyln-hkFQs6-79" value="Reserva" style="whiteSpace=wrap;html=1;align=center;" parent="MZW9BxYWKJyln-hkFQs6-83" vertex="1">
                    <mxGeometry width="140" height="20" as="geometry"/>
                </mxCell>
                <mxCell id="MZW9BxYWKJyln-hkFQs6-84" value="" style="endArrow=none;html=1;rounded=0;entryX=0.5;entryY=0;entryDx=0;entryDy=0;exitX=0.5;exitY=1;exitDx=0;exitDy=0;" parent="1" source="Y7KdL754s5v4gNuGPsCo-7" target="Y7KdL754s5v4gNuGPsCo-50" edge="1">
                    <mxGeometry relative="1" as="geometry">
                        <mxPoint x="260" y="170" as="sourcePoint"/>
                        <mxPoint x="420" y="170" as="targetPoint"/>
                    </mxGeometry>
                </mxCell>
                <mxCell id="MZW9BxYWKJyln-hkFQs6-85" value="1" style="resizable=0;html=1;whiteSpace=wrap;align=left;verticalAlign=bottom;" parent="MZW9BxYWKJyln-hkFQs6-84" connectable="0" vertex="1">
                    <mxGeometry x="-1" relative="1" as="geometry">
                        <mxPoint y="20" as="offset"/>
                    </mxGeometry>
                </mxCell>
                <mxCell id="XlZYMcTae0OPPOOLKQK3-1" value="" style="endArrow=none;html=1;rounded=0;entryX=0.5;entryY=0;entryDx=0;entryDy=0;exitX=0.5;exitY=1;exitDx=0;exitDy=0;" parent="1" source="Y7KdL754s5v4gNuGPsCo-50" target="MZW9BxYWKJyln-hkFQs6-79" edge="1">
                    <mxGeometry relative="1" as="geometry">
                        <mxPoint x="270" y="250" as="sourcePoint"/>
                        <mxPoint x="430" y="250" as="targetPoint"/>
                    </mxGeometry>
                </mxCell>
                <mxCell id="XlZYMcTae0OPPOOLKQK3-2" value="N" style="resizable=0;html=1;whiteSpace=wrap;align=right;verticalAlign=bottom;" parent="XlZYMcTae0OPPOOLKQK3-1" connectable="0" vertex="1">
                    <mxGeometry x="1" relative="1" as="geometry"/>
                </mxCell>
                <mxCell id="92sjB8mAr_glqfk4af3z-4" value="Tipo" style="ellipse;shape=doubleEllipse;margin=3;whiteSpace=wrap;html=1;align=center;" parent="1" vertex="1">
                    <mxGeometry x="530" y="760" width="100" height="40" as="geometry"/>
                </mxCell>
                <mxCell id="sqni71poexYiaZ88xS5l-2" style="rounded=0;orthogonalLoop=1;jettySize=auto;html=1;entryX=1;entryY=1;entryDx=0;entryDy=0;endArrow=none;endFill=0;" parent="1" source="sqni71poexYiaZ88xS5l-1" target="Y7KdL754s5v4gNuGPsCo-65" edge="1">
                    <mxGeometry relative="1" as="geometry"/>
                </mxCell>
                <mxCell id="sqni71poexYiaZ88xS5l-1" value="TipoTransporte" style="ellipse;whiteSpace=wrap;html=1;align=center;" parent="1" vertex="1">
                    <mxGeometry x="1180" y="700" width="110" height="40" as="geometry"/>
                </mxCell>
            </root>
        </mxGraphModel>
    </diagram>
</mxfile>